# xmcd CD database file
#
# Track frame offsets:
#	180
#	19767
#	39446
#	53289
#	71418
#	89440
#	100237
#	120788
#	133284
#	167079
#	184776
#	197010
#	219522
#	233650
#	248897
#	264714
#
# Disc length: 3680 seconds
#
# Revision: 0
# Processed by: cddbd v1.4PL0 Copyright (c) Steve Scherf et al.
# Submitted via: CDex 1.51
#
DISCID=d40e5e10
DTITLE=Various Artist - Impressions
DYEAR=1996
DGENRE=New Age
TTITLE0=Scarborough Fair
TTITLE1=Vincent (Starry, Starry Night)
TTITLE2=Remember- "February Moments"
TTITLE3=Repose- "February Moments"
TTITLE4=In The Midst- "February Moments"
TTITLE5=Forgatten- "February Moments"
TTITLE6=Fire And Rain
TTITLE7=The Ghost Lover
TTITLE8=Three Gymnopedies
TTITLE9=Killing Me Softly With His Song
TTITLE10=If 
TTITLE11=White Picket- "Home Town Suite"
TTITLE12=Big Blue- " Home Town Suite"
TTITLE13=Old Red 47 - " Home Town Suite"
TTITLE14=Rolling Green -"Home Town Suite"
TTITLE15=Greensleeves
EXTD=YEAR: 1996
EXTT0=
EXTT1=
EXTT2=
EXTT3=
EXTT4=
EXTT5=
EXTT6=
EXTT7=
EXTT8=
EXTT9=
EXTT10=
EXTT11=
EXTT12=
EXTT13=
EXTT14=
EXTT15=
PLAYORDER=
